<svg width="30" height="30" viewBox="0 0 256 256" fill="none" xmlns="http://www.w3.org/2000/svg">
    <path d="M208 116C201.575 115.995 195.227 117.395 189.4 120.1L159 68H192C195.183 68 198.235 69.2643 200.485 71.5147C202.736 73.7652 204 76.8174 204 80C204 81.0609 204.421 82.0783 205.172 82.8284C205.922 83.5786 206.939 84 208 84C209.061 84 210.078 83.5786 210.828 82.8284C211.579 82.0783 212 81.0609 212 80C211.974 74.7038 209.858 69.632 206.113 65.8869C202.368 62.1419 197.296 60.0263 192 60H152C151.296 60.0131 150.606 60.2032 149.994 60.5527C149.383 60.9021 148.869 61.3999 148.5 62C148.158 62.6112 147.979 63.2998 147.979 64C147.979 64.7002 148.158 65.3888 148.5 66L163.7 92H97L79.5 62C79.1245 61.406 78.6091 60.9131 77.9989 60.5644C77.3887 60.2158 76.7024 60.022 76 60H48C46.9392 60 45.9217 60.4214 45.1716 61.1716C44.4214 61.9217 44 62.9391 44 64C44 65.0609 44.4214 66.0783 45.1716 66.8284C45.9217 67.5786 46.9392 68 48 68H73.7L89.9 95.8L70.6 122.3C60.8395 116.4 49.1796 114.492 38.0476 116.973C26.9156 119.454 17.1693 126.133 10.8377 135.619C4.50607 145.105 2.07694 156.667 4.056 167.899C6.03506 179.132 12.2698 189.168 21.4624 195.918C30.6549 202.669 42.0969 205.614 53.4064 204.141C64.7159 202.668 75.0215 196.89 82.1778 188.009C89.3341 179.129 92.7897 167.83 91.8253 156.466C90.8608 145.102 85.5506 134.547 77 127L94.3 103.3L128.5 162C128.862 162.607 129.374 163.109 129.987 163.46C130.6 163.81 131.294 163.996 132 164C132.696 163.987 133.38 163.816 134 163.5C134.915 162.957 135.582 162.08 135.862 161.053C136.142 160.027 136.012 158.932 135.5 158L101.6 100H168.4L182.5 124.2C173.987 130.292 167.931 139.226 165.425 149.39C162.919 159.554 164.127 170.279 168.832 179.63C173.537 188.982 181.429 196.344 191.084 200.39C200.739 204.435 211.522 204.897 221.488 201.692C231.453 198.488 239.946 191.827 245.433 182.912C250.921 173.998 253.042 163.415 251.415 153.074C249.787 142.733 244.518 133.314 236.557 126.516C228.596 119.718 218.468 115.988 208 116V116ZM84 160C84 167.12 81.8887 174.08 77.9329 180.001C73.9772 185.921 68.3548 190.535 61.7766 193.26C55.1985 195.984 47.9601 196.697 40.9768 195.308C33.9935 193.919 27.5789 190.491 22.5442 185.456C17.5095 180.421 14.0808 174.007 12.6917 167.023C11.3027 160.04 12.0156 152.802 14.7404 146.223C17.4651 139.645 22.0793 134.023 27.9995 130.067C33.9197 126.111 40.8799 124 48 124C54.2434 123.974 60.3832 125.595 65.8 128.7L44.8 157.6C44.1886 158.458 43.9306 159.517 44.0796 160.56C44.2285 161.603 44.7729 162.548 45.6 163.2C46.2852 163.733 47.1321 164.015 48 164C48.6183 163.985 49.2257 163.834 49.7789 163.558C50.3321 163.281 50.8173 162.886 51.2 162.4L72.3 133.5C75.9889 136.858 78.9352 140.95 80.9501 145.514C82.9649 150.077 84.0038 155.011 84 160V160ZM208 196C200.427 196.007 193.045 193.626 186.903 189.195C180.762 184.764 176.174 178.51 173.792 171.321C171.411 164.132 171.357 156.376 173.639 149.154C175.92 141.933 180.421 135.616 186.5 131.1L204.5 162C204.862 162.607 205.374 163.109 205.987 163.46C206.6 163.81 207.294 163.996 208 164C208.696 163.987 209.38 163.816 210 163.5C210.915 162.957 211.582 162.08 211.862 161.053C212.142 160.027 212.012 158.932 211.5 158L193.4 127.1C198.3 124.923 203.625 123.868 208.986 124.013C214.346 124.158 219.606 125.498 224.382 127.936C229.158 130.374 233.329 133.848 236.59 138.104C239.852 142.36 242.121 147.292 243.233 152.537C244.344 157.783 244.27 163.211 243.015 168.424C241.76 173.637 239.357 178.505 235.98 182.67C232.604 186.835 228.339 190.194 223.498 192.5C218.657 194.806 213.362 196.002 208 196V196Z"
          fill="rgba(0, 0, 0, 0.9)"/>
</svg>
